<svg xmlns="http://www.w3.org/2000/svg" viewBox="0 0 100 100" width="100" height="100" role="img" aria-label="Сигіл ордену">
  <g fill="none" stroke="#cda349" stroke-width="1.4" stroke-linecap="round" opacity=".85">
    <path d="M50 5 V14"/><path d="M34 9 l3 8"/><path d="M66 9 l-3 8"/>
    <path d="M22 19 l5 7"/><path d="M78 19 l-5 7"/>
    <path d="M12 33 l7 5"/><path d="M88 33 l-7 5"/>
  </g>
  <path d="M50 22 L78 30 V52 C78 68 65 78 50 86 C35 78 22 68 22 52 V30 Z"
        fill="rgba(205,163,73,.06)" stroke="#cda349" stroke-width="1.8" stroke-linejoin="round"/>
  <path d="M50 28 L72 34 V52 C72 64 62 72 50 79 C38 72 28 64 28 52 V34 Z"
        fill="none" stroke="#cda349" stroke-width=".7" opacity=".5"/>
  <g stroke="#e7c777" stroke-width="2.2" stroke-linecap="round">
    <path d="M50 31 V72"/><path d="M40 44 H60"/>
  </g>
  <circle cx="50" cy="30" r="2.4" fill="#e7c777"/>
  <path d="M50 72 l3.5 5 -3.5 3 -3.5 -3 Z" fill="#e7c777"/>
</svg>
